<svg width="198" height="42" viewBox="0 0 198 42" fill="none" xmlns="http://www.w3.org/2000/svg">
<g clip-path="url(#clip0_170_615)">
<path d="M41.4276 18.1294C41.6296 17.1238 41.7167 16.1021 41.687 15.0705C41.6593 14.163 41.5464 13.2615 41.1979 12.3921C40.893 11.6309 40.4495 10.9598 39.8337 10.4009C39.0239 9.66371 38.0616 9.21498 37.0221 8.92251C35.9509 8.62002 34.86 8.50383 33.7611 8.4818C33.1987 8.46978 32.6384 8.49582 31.987 8.50584C31.8405 8.52186 31.69 8.53989 31.5336 8.55592C31.5296 8.5459 31.5276 8.53588 31.5237 8.52587C31.2148 7.69052 30.7435 6.94731 30.1852 6.25619C28.6923 4.4072 26.9301 2.8607 24.8451 1.68079C23.9165 1.15393 22.9384 0.731248 21.9127 0.420745C21.0099 0.146301 20.0892 -0.0420042 19.1289 0.00807691C18.2874 0.0521483 17.4934 0.256479 16.7548 0.667144C15.7846 1.20602 15.0501 1.98528 14.4481 2.89074C13.8264 3.82426 13.3809 4.8399 13.0265 5.8916C12.8443 6.43048 12.6998 6.98137 12.5137 7.61239C12.4998 7.6805 12.486 7.75462 12.4721 7.82473C12.4246 7.82473 12.3771 7.82073 12.3295 7.82273C11.4128 7.84477 10.5396 8.05511 9.6902 8.36561C7.41914 9.19695 5.36192 10.3849 3.56804 12.0075C2.76812 12.7307 2.05532 13.534 1.43954 14.4214C0.897016 15.2027 0.431716 16.028 0.190156 16.9715C-0.021704 17.7989 -0.0613039 18.6322 0.118876 19.4796C0.354496 20.5954 0.898996 21.559 1.60784 22.4424C2.33846 23.3499 3.20372 24.1151 4.13036 24.8062C4.60358 25.1588 5.10056 25.4793 5.66486 25.8679C5.60942 26.0162 5.55794 26.1664 5.51438 26.3207C5.25896 27.2121 5.19956 28.1236 5.24906 29.0471C5.37776 31.5131 5.92424 33.8909 6.9776 36.1586C7.44686 37.1682 8.02304 38.1238 8.70812 39.0112C9.31202 39.7925 9.98522 40.5157 10.8406 41.0605C11.591 41.5393 12.3988 41.8518 13.2879 41.958C14.4561 42.0982 15.5708 41.8919 16.6539 41.4993C17.7686 41.0946 18.7843 40.5137 19.7446 39.8446C20.2357 39.502 20.703 39.1294 21.2574 38.7107C21.4752 38.5104 21.7108 38.2961 21.9523 38.0757C22.0771 38.1739 22.2038 38.27 22.3365 38.3602C23.1364 38.9011 24.0155 39.2596 24.9402 39.518C27.4072 40.2092 29.9119 40.4656 32.4642 40.1992C33.6007 40.081 34.7134 39.8406 35.7945 39.472C36.7469 39.1474 37.6617 38.7368 38.4576 38.0917C39.1566 37.5268 39.709 36.8477 40.0832 36.0264C40.5762 34.9446 40.7109 33.8008 40.6515 32.6249C40.5901 31.4149 40.3267 30.243 39.9604 29.0952C39.7723 28.5082 39.5466 27.9333 39.3051 27.2602C39.0358 26.6913 38.7309 26.0322 38.4101 25.3792C38.3646 25.287 38.317 25.1949 38.2715 25.1007C38.4655 24.8623 38.6517 24.6159 38.8219 24.3575C40.0852 22.4504 40.9801 20.3871 41.4316 18.1294H41.4276ZM20.497 23.3539C20.307 23.3018 20.1149 23.2577 19.9248 23.2096C19.9011 22.3863 19.8714 21.565 19.8219 20.7437C19.804 20.4512 19.7783 20.1587 19.7545 19.8662C20.4297 19.6359 21.1029 19.3975 21.7722 19.1491C22.1206 19.0189 22.4652 18.8806 22.8097 18.7404C23.2294 19.2833 23.6551 19.8222 24.0907 20.353C24.3818 20.7076 24.6788 21.0562 24.9817 21.3987C24.6352 21.9035 24.2907 22.4083 23.9561 22.9212C23.6928 23.3258 23.4373 23.7345 23.1879 24.1472C22.2929 23.8727 21.3979 23.6043 20.497 23.3599V23.3539Z" fill="white"/>
<g style="mix-blend-mode:multiply">
<path d="M28.3318 17.4223C27.5398 17.9752 26.8884 18.6743 26.332 19.4596C25.5242 20.5995 24.7203 21.7453 23.956 22.9152C22.9165 24.5058 21.9918 26.1645 21.2394 27.9153C20.7444 29.0632 20.3247 30.2371 20.0811 31.4691C19.8376 32.7051 19.7584 33.9411 20.0673 35.1811C20.2158 35.78 20.4613 36.3329 20.7999 36.8418C21.2058 37.4527 21.7285 37.9475 22.3324 38.3562C23.1323 38.8971 24.0114 39.2557 24.9361 39.5141C27.4032 40.2052 29.9079 40.4616 32.4601 40.1952C33.5966 40.077 34.7094 39.8366 35.7905 39.468C36.7428 39.1435 37.6576 38.7328 38.4536 38.0878C39.1525 37.5229 39.7049 36.8438 40.0791 36.0224C40.5722 34.9407 40.7068 33.7968 40.6474 32.6209C40.586 31.411 40.3227 30.2391 39.9564 29.0912C39.7683 28.5043 39.5426 27.9293 39.301 27.2562C39.0317 26.6873 38.7268 26.0282 38.406 25.3752C38.1645 24.8824 37.9229 24.3876 37.6497 23.9128C37.226 23.1776 36.7923 22.4484 36.333 21.7373C35.7251 20.7998 35.0975 19.8723 34.3807 19.0129C33.8362 18.3578 33.2343 17.7649 32.5136 17.3061C31.9512 16.9475 31.3473 16.7072 30.6781 16.6711C29.8049 16.625 29.0387 16.9295 28.3338 17.4203L28.3318 17.4223Z" fill="#F9E229"/>
</g>
<g style="mix-blend-mode:multiply">
<path d="M27.023 25.7899C26.2568 25.2209 25.3955 24.8243 24.4847 24.5398C23.162 24.1252 21.8354 23.7185 20.4989 23.3539C18.6813 22.8591 16.8359 22.4865 14.9569 22.3002C13.7253 22.178 12.4938 22.1299 11.2622 22.2622C10.0267 22.3944 8.84465 22.6788 7.77743 23.3219C7.26263 23.6324 6.82109 24.017 6.45083 24.4737C6.00731 25.0226 5.70635 25.6456 5.51231 26.3187C5.25689 27.2102 5.19749 28.1216 5.24699 29.0451C5.37569 31.5111 5.92217 33.889 6.97553 36.1566C7.44479 37.1663 8.02097 38.1218 8.70605 39.0093C9.30995 39.7905 9.98315 40.5137 10.8385 41.0586C11.5889 41.5374 12.3968 41.8499 13.2858 41.956C14.454 42.0963 15.5687 41.8899 16.6518 41.4973C17.7665 41.0926 18.7823 40.5117 19.7426 39.8426C20.2336 39.5001 20.7009 39.1275 21.2553 38.7088C21.7047 38.2961 22.2255 37.8253 22.7363 37.3446C23.1224 36.98 23.5105 36.6154 23.8709 36.2268C24.4272 35.6258 24.9737 35.0168 25.4964 34.3878C26.1855 33.5584 26.8547 32.7131 27.4368 31.8076C27.8784 31.1165 28.2467 30.3933 28.4506 29.598C28.609 28.977 28.6446 28.354 28.4684 27.727C28.2368 26.9117 27.7101 26.2947 27.029 25.7899H27.023Z" fill="#31A1FF"/>
</g>
<g style="mix-blend-mode:multiply">
<path d="M19.5921 27.4423C19.8832 26.5729 19.9861 25.6674 19.9663 24.748C19.9386 23.4118 19.903 22.0756 19.8238 20.7415C19.7169 18.9285 19.4832 17.1236 19.0674 15.3427C18.7942 14.1748 18.4516 13.029 17.9408 11.9352C17.428 10.8374 16.7884 9.83381 15.8519 9.03852C15.3985 8.6539 14.8995 8.35942 14.355 8.15108C13.6996 7.90068 13.0225 7.80452 12.3295 7.82055C11.4127 7.84259 10.5396 8.05293 9.69014 8.36343C7.41907 9.19477 5.36186 10.3827 3.56798 12.0053C2.76805 12.7285 2.05525 13.5318 1.43948 14.4192C0.896955 15.2005 0.431655 16.0258 0.190095 16.9694C-0.021765 17.7967 -0.061365 18.6301 0.118815 19.4774C0.354435 20.5932 0.898935 21.5568 1.60777 22.4402C2.33839 23.3477 3.20366 24.1129 4.1303 24.804C4.60549 25.1566 5.10247 25.4791 5.66875 25.8678C6.19741 26.1602 6.80131 26.5048 7.41313 26.8353C7.87645 27.0857 8.33978 27.3361 8.81695 27.5545C9.55549 27.891 10.298 28.2196 11.0524 28.5181C12.0463 28.9107 13.0502 29.2833 14.0818 29.5557C14.8678 29.7621 15.6618 29.8923 16.4716 29.8482C17.1033 29.8142 17.6992 29.6679 18.2319 29.3234C18.9229 28.8746 19.3367 28.2136 19.5961 27.4403L19.5921 27.4423Z" fill="#00B5C8"/>
</g>
<g style="mix-blend-mode:multiply">
<path d="M15.4183 20.8679C16.3231 20.8859 17.2062 20.7156 18.0616 20.4331C19.305 20.0225 20.5465 19.6038 21.7721 19.1451C23.4392 18.5221 25.0549 17.7889 26.5934 16.8914C27.6032 16.3045 28.5694 15.6574 29.4327 14.8721C30.2999 14.0849 31.0405 13.2054 31.4899 12.1157C31.7077 11.5888 31.8265 11.0459 31.8503 10.483C31.878 9.80794 31.7552 9.15689 31.5216 8.52587C31.2127 7.69052 30.7415 6.94731 30.1831 6.25619C28.6902 4.4072 26.928 2.8607 24.8431 1.68079C23.9144 1.15393 22.9363 0.731248 21.9107 0.420745C21.0098 0.146301 20.0891 -0.0420042 19.1288 0.00807691C18.2873 0.0521483 17.4933 0.256479 16.7548 0.667144C15.7846 1.20602 15.05 1.98528 14.4481 2.89074C13.8264 3.82426 13.3809 4.8399 13.0264 5.8916C12.8443 6.43048 12.6997 6.98137 12.5136 7.61239C12.4047 8.18131 12.2721 8.83837 12.1552 9.49544C12.0661 9.99425 11.977 10.4931 11.9236 10.9939C11.8404 11.7691 11.7672 12.5484 11.7236 13.3256C11.6682 14.3533 11.6345 15.383 11.7038 16.4086C11.7573 17.1899 11.886 17.9571 12.181 18.6903C12.4107 19.2612 12.7354 19.7661 13.2264 20.1567C13.864 20.6635 14.6144 20.8518 15.4202 20.8658L15.4183 20.8679Z" fill="#42BD5C"/>
</g>
<g style="mix-blend-mode:multiply">
<path d="M20.4772 15.0042C20.7464 15.8415 21.182 16.6028 21.7166 17.3079C22.4928 18.3316 23.2749 19.3532 24.0907 20.3468C25.1995 21.699 26.3954 22.9731 27.72 24.129C28.5892 24.8862 29.498 25.5873 30.5059 26.1562C31.5176 26.7252 32.573 27.1539 33.7372 27.252C34.2995 27.3001 34.846 27.252 35.3806 27.1118C36.0221 26.9435 36.5924 26.643 37.1111 26.2444C37.7982 25.7175 38.3447 25.0725 38.8179 24.3573C40.0811 22.4502 40.9761 20.3869 41.4275 18.1292C41.6295 17.1236 41.7166 16.102 41.6869 15.0703C41.6592 14.1628 41.5463 13.2614 41.1979 12.392C40.8929 11.6307 40.4494 10.9596 39.8336 10.4007C39.0238 9.66354 38.0615 9.21481 37.022 8.92234C35.9509 8.61985 34.8599 8.50366 33.761 8.48162C33.1987 8.4696 32.6383 8.49564 31.9869 8.50566C31.4186 8.56976 30.7633 8.63787 30.1099 8.72001C29.6149 8.78211 29.1199 8.84421 28.6328 8.93836C27.8784 9.0846 27.126 9.24285 26.3835 9.42916C25.4034 9.67355 24.4273 9.93998 23.4868 10.3006C22.77 10.575 22.0909 10.9156 21.4988 11.3963C21.0355 11.773 20.6653 12.2177 20.4534 12.7806C20.1802 13.5138 20.2396 14.257 20.4791 15.0022L20.4772 15.0042Z" fill="#7EE000"/>
</g>
<path d="M62.665 31.0742V33.4C60.8018 33.4741 59.1367 33.5102 57.6695 33.5102C55.9964 33.5102 54.7549 33.418 53.9411 33.2257C52.5294 32.9052 51.5711 32.2 51.0721 31.1283C50.7652 30.4592 50.6108 29.6359 50.6108 28.6483V12.1235H53.5689V27.3662C53.5689 27.9071 53.5867 28.3458 53.6224 28.7024C53.6956 29.4075 53.9213 30.0385 54.2738 30.3691C54.454 30.5333 54.6995 30.6716 55.0163 30.7898C55.64 31.0101 56.3924 31.0742 57.5863 31.0742H62.663H62.665Z" fill="#3B3D63"/>
<path d="M66.9042 33.4542H63.8728L70.7493 13.9446C71.2285 12.5804 72.0443 11.9033 73.2105 11.9033C74.3767 11.9033 75.1925 12.5804 75.6617 13.9446L82.4393 33.4542H79.3089L77.319 27.5406H68.8763L66.9042 33.4542ZM69.6445 25.2329H76.5389L73.0818 14.9422L69.6425 25.2329H69.6445Z" fill="#3B3D63"/>
<path d="M90.5593 14.4132C90.2425 14.4232 89.898 14.4593 89.5099 14.5054C89.1297 14.5515 88.7951 14.6236 88.506 14.7077C87.9358 14.864 87.3121 15.1665 86.9497 15.5691C86.5874 15.9718 86.334 16.5767 86.334 17.3179C86.2884 18.6361 86.7319 19.4414 87.419 19.9642C87.6368 20.1385 87.9358 20.2948 88.306 20.449C88.6763 20.6053 89.0485 20.7335 89.4188 20.8517C89.7891 20.9698 90.2702 21.1081 90.8385 21.2723C90.8563 21.2824 90.8741 21.2824 90.884 21.2824C92.4126 21.7131 93.4897 22.1337 94.4757 22.8289C95.9409 23.8265 96.6557 25.2548 96.6933 27.5525C96.6933 29.7761 96.0419 31.3426 94.7113 32.3042C93.3986 33.2557 91.5988 33.6784 89.102 33.6784C87.12 33.6784 85.2469 33.4961 83.4828 33.1295L83.7718 30.7317C85.6905 31.0161 87.4368 31.1523 89.0109 31.1523C90.1692 31.1523 91.0107 31.0602 91.8067 30.7577C92.9927 30.301 93.6164 29.3855 93.6441 27.6627C93.6441 26.5549 93.2541 25.7035 92.4858 25.1186C91.9968 24.744 91.1731 24.3774 90.0247 24.0108L89.3455 23.8004C88.7476 23.6181 88.2407 23.4519 87.8249 23.3056C87.4091 23.1594 86.9735 22.9851 86.5221 22.7848C86.0785 22.5744 85.7083 22.3641 85.4093 22.1538C84.8212 21.7231 84.2154 21.1281 83.8986 20.433C83.5818 19.7379 83.3818 18.8224 83.3818 17.7226C83.3818 15.9918 83.8075 14.6737 84.5935 13.7862C84.9836 13.3375 85.4806 12.9709 86.0865 12.6965C87.3081 12.1375 88.7555 11.9092 90.684 11.9092C92.6125 11.9092 94.4025 12.0915 96.2498 12.4501L95.9785 14.7838C94.2421 14.5274 92.7927 14.3992 91.6443 14.3992C91.2364 14.3992 90.8761 14.4092 90.5593 14.4172V14.4132Z" fill="#3B3D63"/>
<path d="M99.5128 33.4544V16.5551C99.5128 15.6116 99.693 14.8423 99.9564 14.2674C100.22 13.6824 100.717 13.2237 101.178 12.9212C101.639 12.6187 102.382 12.4004 102.952 12.2802C103.241 12.2161 103.594 12.17 104.002 12.1419C104.417 12.1139 104.78 12.0959 105.096 12.0879C105.413 12.0778 105.793 12.0698 106.245 12.0698C108.262 12.0698 109.892 12.1059 111.139 12.18V13.2598H106.154C105.348 13.2598 104.679 13.2878 104.144 13.3339C103.085 13.434 102.208 13.7285 101.736 14.1392C101.501 14.3495 101.311 14.634 101.158 15.0086C101.004 15.3832 100.905 15.7959 100.859 16.2446C100.814 16.6933 100.786 17.2522 100.786 17.9373V22.0019H109.985V23.1558H100.786V33.4544H99.5109H99.5128Z" fill="#3B3D63"/>
<path d="M129.765 22.7889C129.765 24.1171 129.712 25.279 129.603 26.2866C129.504 27.2842 129.322 28.2097 129.078 29.0431C128.346 31.497 126.934 32.8232 124.526 33.4101C123.73 33.5844 122.808 33.6766 121.758 33.6766C119.659 33.6766 118.093 33.338 116.899 32.5688C116.301 32.1761 115.804 31.6994 115.396 31.1405C114.6 30.0046 114.111 28.2939 113.894 26.2886C113.795 25.281 113.739 24.1191 113.739 22.7909C113.739 20.1447 113.929 18.2035 114.426 16.5468C114.67 15.7135 114.996 15.0083 115.394 14.4494C116.2 13.3136 117.394 12.5263 118.986 12.1698C119.782 11.9955 120.705 11.9033 121.754 11.9033C123.853 11.9033 125.419 12.2419 126.603 13.0211C127.201 13.4058 127.698 13.8825 128.096 14.4494C128.902 15.5753 129.391 17.288 129.599 19.3013C129.708 20.2989 129.761 21.4608 129.761 22.7889H129.765ZM115.297 27.5587C115.579 29.2154 116.192 30.4333 117.125 31.2026C118.157 32.0539 119.703 32.4846 121.758 32.4846C124.156 32.4846 125.867 31.8897 126.888 30.6897C127.657 29.8023 128.138 28.4561 128.328 26.6432C128.427 25.7557 128.472 24.4637 128.472 22.7889C128.472 20.6094 128.381 18.9988 128.191 17.9551C127.892 16.2984 127.276 15.0905 126.328 14.3292C125.286 13.5059 123.768 13.0932 121.758 13.0932C119.36 13.0932 117.65 13.6782 116.618 14.8501C115.858 15.7195 115.379 17.0477 115.179 18.8325C115.08 19.73 115.034 21.0481 115.034 22.7869C115.034 24.9384 115.125 26.531 115.297 27.5567V27.5587Z" fill="#3B3D63"/>
<path d="M133.478 33.4542V12.3621C135.505 12.0596 137.576 11.9033 139.685 11.9033C140.364 11.9033 140.98 11.9214 141.522 11.9674C142.075 12.0035 142.635 12.0776 143.205 12.1878C143.776 12.298 144.283 12.4442 144.708 12.6365C145.577 13.0111 146.419 13.6441 146.916 14.4955C147.423 15.3369 147.74 16.5468 147.74 18.0473C147.74 20.1627 147.187 21.6992 146.13 22.6527C145.081 23.5963 143.76 24.063 141.922 24.2553L147.278 33.4562H145.776L140.564 24.3375C140.428 24.3475 140.212 24.3475 139.931 24.3475C138.935 24.3475 137.206 24.2834 134.755 24.1652V33.4562H133.48L133.478 33.4542ZM134.753 22.9172C136.345 23.0734 137.992 23.1555 139.685 23.1555C141.495 23.1555 142.788 22.9913 143.92 22.5245C145.613 21.8194 146.409 20.4732 146.445 18.0473C146.399 14.4214 144.688 13.1393 139.794 13.0953C138.202 13.0953 136.519 13.2134 134.755 13.4438V22.9192L134.753 22.9172Z" fill="#3B3D63"/>
<path d="M162.772 31.0742V33.4C160.909 33.4741 159.243 33.5102 157.776 33.5102C156.103 33.5102 154.862 33.418 154.048 33.2257C152.636 32.9052 151.678 32.2 151.179 31.1283C150.872 30.4592 150.718 29.6359 150.718 28.6483V12.1235H153.676V27.3662C153.676 27.9071 153.694 28.3458 153.729 28.7024C153.802 29.4075 154.028 30.0385 154.381 30.3691C154.561 30.5333 154.806 30.6716 155.123 30.7898C155.747 31.0101 156.499 31.0742 157.693 31.0742H162.77H162.772Z" fill="#3B3D63"/>
<path d="M164.312 33.4541V12.1235H167.27V33.4541H164.312Z" fill="#3B3D63"/>
<path d="M173.892 33.454H170.941V16.9393C170.941 14.9621 171.583 13.6079 172.86 12.8827C173.684 12.4159 174.933 12.1495 176.596 12.0854C176.966 12.0754 177.428 12.0674 177.998 12.0674C179.754 12.0674 181.544 12.1135 183.364 12.2056V14.5033H177.907C177.309 14.5033 176.812 14.5214 176.404 14.5674C175.608 14.6416 174.957 14.8779 174.594 15.2085C174.422 15.3727 174.278 15.6031 174.161 15.9036C173.943 16.4885 173.89 17.1476 173.89 18.2193V21.4045H182.938V23.7763H173.89V33.452L173.892 33.454Z" fill="#3B3D63"/>
<path d="M198 14.5038H192.553C191.955 14.5038 191.458 14.5218 191.05 14.5679C190.254 14.642 189.603 14.8784 189.24 15.2089C189.068 15.3732 188.924 15.6035 188.807 15.904C188.581 16.489 188.526 17.148 188.526 18.2198V21.4049H197.584V23.7768H188.526V27.3646C188.526 27.9055 188.544 28.3542 188.579 28.7108C188.652 29.4159 188.886 30.0469 189.24 30.3775C189.421 30.5337 189.666 30.6699 189.983 30.7901C190.607 31.0105 191.359 31.0746 192.553 31.0746H198V33.3823C196.127 33.4645 194.335 33.5105 192.644 33.5105C190.953 33.5105 189.739 33.4184 188.926 33.2361C187.514 32.9156 186.556 32.2104 186.057 31.1407C185.74 30.4716 185.585 29.6483 185.585 28.6507V16.9417C185.585 15.9261 185.766 15.0647 186.047 14.4417C186.328 13.8187 186.843 13.3158 187.314 12.9853C187.793 12.6548 188.589 12.4184 189.177 12.2982C189.476 12.2341 189.846 12.18 190.282 12.152C190.725 12.1159 191.106 12.0979 191.43 12.0879C191.765 12.0778 192.163 12.0698 192.642 12.0698C194.171 12.0698 195.955 12.1159 197.998 12.208V14.5058L198 14.5038Z" fill="#3B3D63"/>
</g>
<defs>
<clipPath id="clip0_170_615">
<rect width="198" height="42" fill="white"/>
</clipPath>
</defs>
</svg>
