<svg width="801" height="874" viewBox="0 0 801 874" fill="none" xmlns="http://www.w3.org/2000/svg">
<path d="M129.033 598.484C151.035 612.001 175.108 620.677 200.176 626.177C236.589 634.167 273.066 641.994 309.731 648.612C359.564 657.605 409.791 663.171 460.398 663.672C493.582 664.001 526.557 662.293 559.02 655.736C591.598 649.156 622.333 638.56 648.976 618.592C661.851 608.944 672.553 597.471 681.157 584.164C691.482 568.201 697.786 550.617 701.075 531.912C705.432 507.132 704.478 482.314 700.637 457.428C690.379 390.955 669.25 327.928 634.93 269.079C619.64 242.861 601.657 218.429 580.935 196.07C562.686 176.378 542.747 158.463 518.452 145.777C497.143 134.65 474.712 128.163 450.713 127.42C419.164 126.443 390.021 134.756 362.225 148.036C333.606 161.708 308.158 179.917 284.383 200.339C280.734 203.473 277.152 206.681 273.557 209.978C256.523 225.598 240.427 242.205 225.14 259.539C220.605 264.68 216.006 269.936 211.453 275.226C202.158 286.028 192.824 296.849 184.319 308.246C171.166 325.869 158.235 343.69 146.065 361.978C130.004 386.113 114.453 410.604 101.485 436.556C91.6124 456.314 83.7907 476.796 80.5792 498.822C78.0734 516.011 78.8194 532.979 85.2915 549.52C93.7149 571.043 109.471 586.465 129.032 598.483L129.033 598.484Z" fill="#73CC00" fill-opacity="0.1"/>
</svg>
