<svg width="44" height="32" viewBox="0 0 44 32" fill="none" xmlns="http://www.w3.org/2000/svg">
<path id="Vector" d="M16 32C15.3667 32 14.8 31.8167 14.3 31.45C13.8 31.0833 13.4333 30.6167 13.2 30.05L8.6 18H0V14H11.4L16 26.2L25.2 1.95C25.4333 1.38333 25.8 0.916667 26.3 0.55C26.8 0.183333 27.3667 0 28 0C28.6333 0 29.2 0.183333 29.7 0.55C30.2 0.916667 30.5667 1.38333 30.8 1.95L35.4 14H44V18H32.6L28 5.8L18.8 30.05C18.5667 30.6167 18.2 31.0833 17.7 31.45C17.2 31.8167 16.6333 32 16 32Z" fill="#31A1FF"/>
</svg>
