<svg width="24" height="38" viewBox="0 0 24 38" fill="none" xmlns="http://www.w3.org/2000/svg">
<path id="Vector" d="M0 38V36.2727C0 32.2712 0.828571 29.0254 2.48571 26.5352C4.14286 24.0451 6.42857 21.5333 9.34286 19C6.42857 16.4667 4.14286 13.9549 2.48571 11.4648C0.828571 8.97462 0 5.72879 0 1.72727V0H3.42857V1.72727C3.42857 2.04394 3.43571 2.33902 3.45 2.6125C3.46429 2.88598 3.48571 3.16667 3.51429 3.45455H20.4857C20.5143 3.16667 20.5357 2.88598 20.55 2.6125C20.5643 2.33902 20.5714 2.04394 20.5714 1.72727V0H24V1.72727C24 5.72879 23.1714 8.97462 21.5143 11.4648C19.8571 13.9549 17.5714 16.4667 14.6571 19C17.5714 21.5333 19.8571 24.0451 21.5143 26.5352C23.1714 29.0254 24 32.2712 24 36.2727V38H20.5714V36.2727C20.5714 35.9561 20.5643 35.661 20.55 35.3875C20.5357 35.114 20.5143 34.8333 20.4857 34.5455H3.51429C3.48571 34.8333 3.46429 35.114 3.45 35.3875C3.43571 35.661 3.42857 35.9561 3.42857 36.2727V38H0ZM5.91429 10.3636H18.0857C18.4571 9.81667 18.7786 9.2697 19.05 8.72273C19.3214 8.17576 19.5714 7.57121 19.8 6.90909H4.2C4.42857 7.54242 4.67857 8.13977 4.95 8.70114C5.22143 9.2625 5.54286 9.81667 5.91429 10.3636ZM12 16.7545C12.5714 16.2652 13.1286 15.7758 13.6714 15.2864C14.2143 14.797 14.7286 14.3076 15.2143 13.8182H8.78571C9.27143 14.3076 9.78571 14.797 10.3286 15.2864C10.8714 15.7758 11.4286 16.2652 12 16.7545ZM8.78571 24.1818H15.2143C14.7286 23.6924 14.2143 23.203 13.6714 22.7136C13.1286 22.2242 12.5714 21.7348 12 21.2455C11.4286 21.7348 10.8714 22.2242 10.3286 22.7136C9.78571 23.203 9.27143 23.6924 8.78571 24.1818ZM4.2 31.0909H19.8C19.5714 30.4576 19.3214 29.8602 19.05 29.2989C18.7786 28.7375 18.4571 28.1833 18.0857 27.6364H5.91429C5.54286 28.1833 5.22143 28.7303 4.95 29.2773C4.67857 29.8242 4.42857 30.4288 4.2 31.0909Z" fill="#7EE000"/>
</svg>
