<svg width="56" height="56" viewBox="0 0 56 56" fill="none" xmlns="http://www.w3.org/2000/svg">
<path d="M17.5 7C19.5222 7 21.4472 7.42778 23.275 8.28333C25.1028 9.13889 26.6778 10.3444 28 11.9C29.3222 10.3444 30.8972 9.13889 32.725 8.28333C34.5528 7.42778 36.4778 7 38.5 7C42.1555 7 45.2083 8.225 47.6583 10.675C50.1083 13.125 51.3333 16.1778 51.3333 19.8333C51.3333 20.0278 51.3236 20.2222 51.3041 20.4167C51.2847 20.6111 51.275 20.8056 51.275 21H46.6083C46.6472 20.8056 46.6666 20.6111 46.6666 20.4167V19.8333C46.6666 17.5 45.8889 15.5556 44.3333 14C42.7778 12.4444 40.8333 11.6667 38.5 11.6667C36.6722 11.6667 34.9805 12.1819 33.425 13.2125C31.8694 14.2431 30.8 15.5556 30.2166 17.15H25.7833C25.2 15.5556 24.1305 14.2431 22.575 13.2125C21.0194 12.1819 19.3278 11.6667 17.5 11.6667C15.1666 11.6667 13.2222 12.4444 11.6666 14C10.1111 15.5556 9.33331 17.5 9.33331 19.8333V20.4167C9.33331 20.6111 9.35276 20.8056 9.39165 21H4.72498C4.72498 20.8056 4.71526 20.6111 4.69581 20.4167C4.67637 20.2222 4.66665 20.0278 4.66665 19.8333C4.66665 16.1778 5.89165 13.125 8.34165 10.675C10.7916 8.225 13.8444 7 17.5 7ZM12.3666 35H18.9C20.1444 36.2056 21.5055 37.5083 22.9833 38.9083C24.4611 40.3083 26.1333 41.8444 28 43.5167C29.8666 41.8444 31.5389 40.3083 33.0166 38.9083C34.4944 37.5083 35.8555 36.2056 37.1 35H43.6916C42.2139 36.6333 40.4639 38.4028 38.4416 40.3083C36.4194 42.2139 34.0666 44.3722 31.3833 46.7833L28 49.8167L24.6166 46.7833C21.9333 44.3722 19.5903 42.2139 17.5875 40.3083C15.5847 38.4028 13.8444 36.6333 12.3666 35ZM25.7833 37.3333C26.2889 37.3333 26.7264 37.1875 27.0958 36.8958C27.4653 36.6042 27.7278 36.225 27.8833 35.7583L31.0333 26.25L33.075 29.2833C33.2694 29.5944 33.5416 29.8472 33.8916 30.0417C34.2416 30.2361 34.6111 30.3333 35 30.3333H53.6666V25.6667H36.3416L32.3166 19.7167C32.0833 19.3667 31.7819 19.1042 31.4125 18.9292C31.043 18.7542 30.6444 18.6667 30.2166 18.6667C29.7111 18.6667 29.2736 18.8125 28.9041 19.1042C28.5347 19.3958 28.2722 19.775 28.1166 20.2417L24.9666 29.6917L22.9833 26.7167C22.7889 26.4056 22.5166 26.1528 22.1666 25.9583C21.8166 25.7639 21.4472 25.6667 21.0583 25.6667H2.33331V30.3333H19.6583L23.6833 36.2833C23.9166 36.6333 24.218 36.8958 24.5875 37.0708C24.9569 37.2458 25.3555 37.3333 25.7833 37.3333Z" fill="white"/>
</svg>
