<svg width="116" height="50" viewBox="0 0 116 50" fill="none" xmlns="http://www.w3.org/2000/svg">
<path d="M49.7018 21.5107C49.9449 20.32 50.0491 19.1045 50.0144 17.884C49.9796 16.8074 49.8457 15.7358 49.4289 14.7088C49.0618 13.8058 48.5309 13.012 47.7917 12.3472C46.8193 11.474 45.6682 10.9431 44.418 10.5958C43.133 10.2386 41.8232 10.0997 40.5035 10.0749C39.8287 10.06 39.154 10.0898 38.3751 10.1047C38.2014 10.1245 38.0179 10.1443 37.8293 10.1642C37.8293 10.1543 37.8244 10.1394 37.8194 10.1295C37.4473 9.13719 36.8817 8.25904 36.2119 7.43546C34.4209 5.24255 32.3074 3.41182 29.8069 2.00776C28.6906 1.38264 27.5197 0.881542 26.2893 0.514404C25.2077 0.191918 24.1013 -0.0313422 22.9503 0.0232324C21.9382 0.0728457 20.9856 0.320912 20.1025 0.802161C18.9366 1.44217 18.0584 2.36498 17.3341 3.44159C16.5899 4.54796 16.0541 5.75357 15.6274 6.99886C15.4091 7.63887 15.2354 8.28881 15.0122 9.03796C14.9973 9.11735 14.9775 9.20665 14.9626 9.29099C14.903 9.29099 14.8485 9.29099 14.7889 9.29099C13.6875 9.3158 12.6407 9.56387 11.6236 9.93597C8.89983 10.9233 6.43405 12.3323 4.27587 14.2523C3.31833 15.1106 2.46002 16.0632 1.72079 17.115C1.07085 18.0378 0.510222 19.0202 0.222465 20.1414C-0.0305627 21.1238 -0.080176 22.1111 0.138122 23.1182C0.420918 24.4379 1.07581 25.584 1.9242 26.6308C2.80236 27.7074 3.83927 28.6154 4.95061 29.434C5.52116 29.8507 6.11652 30.2328 6.79126 30.6942C6.7218 30.8678 6.66227 31.0464 6.60769 31.23C6.30009 32.2867 6.23063 33.3683 6.29017 34.4648C6.44397 37.392 7.09887 40.21 8.364 42.899C8.92463 44.0997 9.61922 45.2309 10.4378 46.2827C11.1622 47.2104 11.9709 48.0638 12.9929 48.7137C13.8909 49.2793 14.8633 49.6514 15.93 49.7804C17.3341 49.9491 18.6687 49.701 19.9685 49.2346C21.3081 48.7534 22.5236 48.0638 23.6747 47.2749C24.2651 46.8681 24.8257 46.4265 25.4905 45.9304C25.7535 45.6923 26.0313 45.4392 26.324 45.1763C26.4729 45.2953 26.6267 45.4095 26.7854 45.5136C27.7479 46.1537 28.7997 46.5803 29.911 46.8879C32.873 47.7066 35.8746 48.0142 38.9357 47.6966C40.3001 47.5577 41.6347 47.27 42.9345 46.8334C44.0756 46.4464 45.1721 45.9602 46.1296 45.1961C46.9681 44.5263 47.628 43.7226 48.0794 42.7452C48.6698 41.4652 48.8336 40.1058 48.7591 38.7117C48.6847 37.2778 48.3672 35.8887 47.9306 34.5243C47.7073 33.8297 47.4345 33.1451 47.1417 32.3512C46.8193 31.6765 46.4521 30.8926 46.0701 30.1236C46.0155 30.0145 45.9609 29.9053 45.9064 29.7962C46.1396 29.5134 46.3628 29.2206 46.5662 28.913C48.0794 26.6507 49.156 24.2047 49.6968 21.5256L49.7018 21.5107ZM24.5925 27.7025C24.3643 27.6429 24.1361 27.5884 23.9078 27.5288C23.8781 26.5515 23.8433 25.579 23.7838 24.6017C23.764 24.2544 23.7292 23.9071 23.7044 23.5598C24.5131 23.2869 25.3218 23.0041 26.1256 22.7064C26.5423 22.5526 26.9591 22.3889 27.3708 22.2202C27.8769 22.8652 28.383 23.5002 28.9089 24.1303C29.2562 24.552 29.6134 24.9638 29.9755 25.3707C29.5588 25.971 29.147 26.5663 28.7451 27.1766C28.4276 27.6578 28.12 28.1391 27.8223 28.6302C26.7507 28.3078 25.6741 27.9853 24.5925 27.6975V27.7025Z" fill="white"/>
<g style="mix-blend-mode:multiply">
<path d="M33.9941 20.6721C33.0465 21.327 32.2626 22.1556 31.5928 23.0883C30.6254 24.4378 29.6579 25.7972 28.7401 27.1864C27.4948 29.0717 26.3834 31.0413 25.4805 33.1151C24.8851 34.4746 24.384 35.8687 24.0913 37.3273C23.7986 38.7909 23.7043 40.2595 24.0764 41.728C24.255 42.4375 24.5477 43.0924 24.9546 43.6977C25.4408 44.422 26.0659 45.0074 26.7903 45.4937C27.7528 46.1337 28.8046 46.5603 29.9159 46.8679C32.8778 47.6866 35.8794 47.9942 38.9406 47.6766C40.3049 47.5377 41.6395 47.25 42.9394 46.8134C44.0805 46.4264 45.1769 45.9402 46.1345 45.1761C46.9729 44.5064 47.6328 43.7026 48.0843 42.7252C48.6747 41.4452 48.8384 40.0858 48.764 38.6917C48.6896 37.2579 48.372 35.8687 47.9354 34.5043C47.7122 33.8097 47.4393 33.1251 47.1466 32.3313C46.8241 31.6565 46.457 30.8726 46.0749 30.1036C45.7872 29.5182 45.4945 28.9327 45.167 28.3672C44.661 27.494 44.14 26.6307 43.5893 25.7873C42.86 24.6759 42.1059 23.5745 41.2476 22.5574C40.5927 21.7835 39.8733 21.079 39.01 20.5332C38.3353 20.1065 37.6109 19.8238 36.8072 19.7791C35.7603 19.7245 34.8375 20.0867 33.9941 20.6672V20.6721Z" fill="#F9E229"/>
</g>
<g style="mix-blend-mode:multiply">
<path d="M32.4214 30.5948C31.5036 29.9201 30.4667 29.4487 29.3752 29.1114C27.7875 28.6202 26.195 28.1389 24.5924 27.7023C22.4095 27.1169 20.1967 26.6753 17.9443 26.4521C16.4658 26.3082 14.9873 26.2487 13.5088 26.4074C12.0254 26.5662 10.6065 26.9036 9.3314 27.6626C8.71123 28.0298 8.18533 28.4862 7.73881 29.027C7.20795 29.6769 6.84577 30.4162 6.61259 31.215C6.30499 32.2717 6.23553 33.3533 6.29507 34.4497C6.44887 37.3769 7.10376 40.195 8.3689 42.884C8.92953 44.0797 9.62412 45.2158 10.4427 46.2676C11.1671 47.1954 11.9758 48.0487 12.9978 48.6987C13.8958 49.2643 14.8682 49.6364 15.9349 49.7654C17.339 49.934 18.6736 49.686 19.9734 49.2196C21.313 48.7384 22.5285 48.0487 23.6796 47.2599C24.27 46.8531 24.8306 46.4115 25.4954 45.9154C26.0312 45.4242 26.6613 44.8685 27.2716 44.298C27.733 43.8663 28.1993 43.4347 28.631 42.9733C29.2958 42.2589 29.9556 41.5395 30.5808 40.7953C31.4043 39.8129 32.213 38.8108 32.9076 37.7341C33.4385 36.9155 33.88 36.0572 34.1232 35.1146C34.3117 34.3803 34.3563 33.641 34.143 32.8969C33.8652 31.9294 33.2351 31.2001 32.4165 30.5998L32.4214 30.5948Z" fill="#31A1FF"/>
</g>
<g style="mix-blend-mode:multiply">
<path d="M23.5059 32.5545C23.8532 31.5226 23.9772 30.4509 23.9524 29.3595C23.9177 27.7768 23.878 26.1892 23.7837 24.6065C23.6547 22.4533 23.3769 20.3149 22.8758 18.2064C22.5484 16.8222 22.1366 15.4628 21.5263 14.1679C20.9111 12.868 20.1421 11.6773 19.0209 10.7346C18.4801 10.2782 17.8798 9.93089 17.2249 9.68283C16.441 9.38515 15.6273 9.27104 14.7938 9.29088C13.6924 9.31569 12.6456 9.56375 11.6285 9.93585C8.90471 10.9232 6.43893 12.3322 4.28075 14.2522C3.32322 15.1105 2.46491 16.0631 1.72567 17.1149C1.07573 18.0377 0.515105 19.02 0.227348 20.1413C-0.0256799 21.1236 -0.0752932 22.111 0.143005 23.1181C0.425801 24.4378 1.0807 25.5839 1.92908 26.6307C2.80724 27.7073 3.84416 28.6153 4.95549 29.4339C5.52605 29.8506 6.1214 30.2326 6.80111 30.694C7.43616 31.0413 8.16051 31.4482 8.89479 31.8401C9.45046 32.1378 10.0061 32.4355 10.5816 32.6935C11.4697 33.0953 12.3578 33.4823 13.2608 33.8346C14.4515 34.3009 15.6571 34.7425 16.8924 35.065C17.8351 35.3081 18.7877 35.4619 19.7601 35.4123C20.5192 35.3726 21.2336 35.1989 21.8687 34.7921C22.6972 34.2612 23.1933 33.4774 23.5059 32.5595V32.5545Z" fill="#00B5C8"/>
</g>
<g style="mix-blend-mode:multiply">
<path d="M18.4999 24.7553C19.5865 24.7752 20.6432 24.5767 21.6702 24.2393C23.1636 23.7531 24.652 23.257 26.1205 22.7113C28.1199 21.972 30.0598 21.1038 31.9054 20.0371C33.116 19.3425 34.2769 18.5735 35.3139 17.6408C36.3557 16.708 37.2438 15.6662 37.7846 14.3713C38.0476 13.7461 38.1865 13.1012 38.2162 12.4363C38.251 11.6376 38.1021 10.8636 37.8243 10.1144C37.4522 9.12218 36.8866 8.24402 36.2168 7.42044C34.4258 5.22753 32.3123 3.3968 29.8117 1.99275C28.6954 1.36762 27.5246 0.866527 26.2942 0.499389C25.2126 0.176903 24.1062 -0.0463568 22.9552 0.00821778C21.9431 0.0578311 20.9905 0.305897 20.1074 0.787146C18.9415 1.42716 18.0633 2.34996 17.339 3.42657C16.5948 4.53295 16.0589 5.73855 15.6323 6.98384C15.414 7.62386 15.2403 8.27379 15.0171 9.02295C14.8881 9.69769 14.7293 10.4766 14.5854 11.2555C14.4812 11.8459 14.3721 12.4363 14.3076 13.0317C14.2084 13.9495 14.1191 14.8724 14.0695 15.7952C14.005 17.0156 13.9603 18.2312 14.0446 19.4517C14.1091 20.3794 14.2629 21.2874 14.6152 22.1556C14.893 22.8303 15.28 23.4306 15.8704 23.892C16.6345 24.4924 17.5374 24.7156 18.4999 24.7355V24.7553Z" fill="#42BD5C"/>
</g>
<g style="mix-blend-mode:multiply">
<path d="M24.5676 17.8044C24.8901 18.7967 25.411 19.6997 26.056 20.5381C26.9887 21.7537 27.9264 22.9642 28.9038 24.1401C30.2335 25.7426 31.6673 27.2558 33.2599 28.6251C34.3017 29.5231 35.3932 30.3566 36.6038 31.0264C37.8193 31.7011 39.0845 32.2072 40.4786 32.3262C41.1533 32.3808 41.8082 32.3262 42.4482 32.1576C43.2172 31.9591 43.9019 31.6019 44.527 31.1306C45.3506 30.5054 46.0055 29.7414 46.5761 28.893C48.0893 26.6306 49.1659 24.1847 49.7067 21.5056C49.9498 20.3149 50.054 19.0993 50.0192 17.8789C49.9845 16.8023 49.8505 15.7306 49.4338 14.7036C49.0666 13.8006 48.5358 13.0068 47.7966 12.342C46.8241 11.4688 45.6731 10.938 44.4228 10.5907C43.1379 10.2335 41.8281 10.0945 40.5084 10.0697C39.8336 10.0548 39.1589 10.0846 38.3799 10.0995C37.7002 10.1739 36.9114 10.2583 36.1275 10.3525C35.5321 10.4269 34.9417 10.5014 34.3563 10.6105C33.4534 10.7842 32.5504 10.9727 31.6574 11.191C30.4815 11.4837 29.3106 11.7963 28.1844 12.2229C27.3261 12.5504 26.5125 12.9523 25.798 13.5228C25.2424 13.9693 24.7958 14.4952 24.5428 15.165C24.2154 16.0332 24.2848 16.9164 24.5726 17.7995L24.5676 17.8044Z" fill="#7EE000"/>
</g>
<path d="M75.1831 36.861V39.6195C72.9455 39.7038 70.9511 39.7485 69.1898 39.7485C67.1805 39.7485 65.6921 39.6393 64.7197 39.4111C63.0278 39.0291 61.8768 38.1956 61.2765 36.9255C60.9094 36.1317 60.7208 35.1543 60.7208 33.9834V14.3911H64.2682V32.4652C64.2682 33.1052 64.288 33.6262 64.3327 34.0479C64.417 34.8814 64.6899 35.6306 65.1166 36.0225C65.3349 36.216 65.6276 36.3797 66.0046 36.5236C66.7538 36.7865 67.6568 36.861 69.0856 36.861H75.1732H75.1831Z" fill="#3B3D63"/>
<path d="M80.2636 39.679H76.627L84.8776 16.5493C85.4532 14.9319 86.4305 14.1282 87.8296 14.1282C89.2287 14.1282 90.2061 14.9319 90.7717 16.5493L98.9033 39.679H95.1476L92.7612 32.6687H82.6351L80.2686 39.679H80.2636ZM83.553 29.935H91.8235L87.6758 17.7351L83.553 29.935Z" fill="#3B3D63"/>
<path d="M108.642 17.1049C108.26 17.1149 107.849 17.1595 107.382 17.2141C106.926 17.2687 106.524 17.353 106.177 17.4522C105.492 17.6358 104.743 17.993 104.311 18.4743C103.875 18.9505 103.572 19.6699 103.572 20.5481C103.517 22.1109 104.048 23.0685 104.877 23.6837C105.14 23.892 105.497 24.0756 105.938 24.2592C106.385 24.4427 106.827 24.5965 107.273 24.7355C107.72 24.8744 108.295 25.0381 108.975 25.2366C108.995 25.2465 109.019 25.2465 109.029 25.2465C110.865 25.7575 112.155 26.2536 113.341 27.0822C115.097 28.263 115.955 29.9597 116 32.6835C116 35.3229 115.216 37.1785 113.624 38.3196C112.051 39.4508 109.888 39.9469 106.891 39.9469C104.515 39.9469 102.267 39.7286 100.149 39.297L100.496 36.4541C102.798 36.7915 104.892 36.9552 106.782 36.9552C108.171 36.9552 109.183 36.8461 110.136 36.4888C111.56 35.9481 112.309 34.8615 112.339 32.8175C112.339 31.5027 111.872 30.4956 110.949 29.801C110.364 29.3545 109.377 28.9228 107.997 28.4862L107.184 28.2382C106.469 28.0199 105.859 27.8264 105.358 27.6527C104.857 27.4791 104.336 27.2707 103.795 27.0326C103.264 26.7845 102.818 26.5315 102.461 26.2834C101.756 25.7724 101.027 25.0679 100.65 24.2443C100.268 23.4207 100.029 22.3342 100.029 21.0293C100.029 18.9754 100.54 17.4125 101.483 16.3607C101.95 15.8299 102.545 15.3933 103.274 15.0708C104.738 14.4109 106.474 14.1381 108.786 14.1381C111.098 14.1381 113.246 14.3564 115.464 14.7781L115.137 17.5465C113.053 17.2439 111.317 17.0901 109.937 17.0901C109.451 17.0901 109.014 17.1 108.632 17.1099L108.642 17.1049Z" fill="#3B3D63"/>
</svg>
