<svg width="27" height="37" viewBox="0 0 27 37" fill="none" xmlns="http://www.w3.org/2000/svg">
<path id="Vector" d="M0 37V33.1053H9.64286V29.2105C6.975 29.2105 4.70089 28.2612 2.82054 26.3625C0.940179 24.4638 0 22.1675 0 19.4737C0 17.4939 0.538393 15.6925 1.61518 14.0697C2.69196 12.4469 4.14643 11.2623 5.97857 10.5158C6.23571 9.41228 6.80625 8.51974 7.69018 7.83816C8.57411 7.15658 9.57857 6.81579 10.7036 6.81579L9.64286 3.79737L11.475 3.11579L10.8 1.36316L14.4643 0L15.0429 1.85L16.875 1.16842L22.1786 15.7737L20.3464 16.4553L21.0214 18.3053L17.3571 19.6684L16.7786 17.8184L14.9464 18.5L13.7893 15.2868C13.3071 15.7412 12.7527 16.082 12.1259 16.3092C11.4991 16.5364 10.8643 16.6175 10.2214 16.5526C9.51429 16.4877 8.85536 16.2686 8.24464 15.8954C7.63393 15.5221 7.10357 15.0596 6.65357 14.5079C5.78571 15.0272 5.10268 15.725 4.60446 16.6013C4.10625 17.4776 3.85714 18.4351 3.85714 19.4737C3.85714 21.0965 4.41964 22.4759 5.54464 23.6118C6.66964 24.7478 8.03571 25.3158 9.64286 25.3158H25.0714V29.2105H15.4286V33.1053H27V37H0ZM16.6821 14.7026L18.4179 14.0211L15.1393 4.86842L13.3071 5.55L16.6821 14.7026ZM10.6071 13.6316C11.1536 13.6316 11.6116 13.445 11.9812 13.0717C12.3509 12.6985 12.5357 12.236 12.5357 11.6842C12.5357 11.1325 12.3509 10.67 11.9812 10.2967C11.6116 9.92346 11.1536 9.73684 10.6071 9.73684C10.0607 9.73684 9.60268 9.92346 9.23304 10.2967C8.86339 10.67 8.67857 11.1325 8.67857 11.6842C8.67857 12.236 8.86339 12.6985 9.23304 13.0717C9.60268 13.445 10.0607 13.6316 10.6071 13.6316Z" fill="#E7C019"/>
</svg>
