<svg width="350" height="982" viewBox="0 0 350 982" fill="none" xmlns="http://www.w3.org/2000/svg">
<mask id="mask0_180_2016" style="mask-type:alpha" maskUnits="userSpaceOnUse" x="0" y="0" width="350" height="982">
<rect width="350" height="982" fill="#D9D9D9"/>
</mask>
<g mask="url(#mask0_180_2016)">
<g style="mix-blend-mode:multiply">
<g style="mix-blend-mode:multiply">
<path d="M735.664 806.771C780.094 775.59 816.627 736.203 847.683 692.143C892.793 628.14 937.635 563.875 980.239 498.193C1038.14 408.926 1089.58 315.943 1131.32 217.849C1158.69 153.529 1181.86 87.8586 1195.04 19.0045C1208.27 -50.0946 1212.07 -119.068 1194.06 -188.155C1185.35 -221.539 1171.29 -252.265 1151.92 -280.494C1128.68 -314.358 1099 -341.791 1064.68 -364.323C1019.21 -394.171 969.392 -413.711 917.108 -427.692C777.46 -465.036 635.875 -478.238 491.921 -462.163C427.787 -455.001 365.018 -441.057 304.139 -419.991C250.523 -401.439 199.061 -378.067 154.427 -341.706C115.278 -309.815 84.3953 -271.735 63.6021 -225.655C36.2663 -165.078 29.2368 -101.17 33.101 -35.6031C37.0843 31.9013 52.5807 97.1499 73.8016 161.039C84.6594 193.728 97.7337 225.678 111.726 263.103C127.237 294.739 144.768 331.369 163.097 367.596C176.966 395.006 190.836 422.506 206.515 448.891C230.76 489.696 255.57 530.234 281.917 569.696C316.687 621.775 352.575 673.165 393.433 720.79C424.539 757.047 458.721 789.932 499.667 815.176C531.626 834.878 565.763 848.054 603.667 849.712C652.99 851.873 696.157 834.493 735.664 806.771Z" fill="#31A1FF"/>
</g>
<g style="mix-blend-mode:multiply">
<path d="M1215.07 868.69C1191.46 830.895 1160.5 798.854 1125.31 770.867C1074.18 730.215 1022.81 689.758 970.132 650.997C898.532 598.317 823.44 550.548 743.495 510.196C691.073 483.735 637.278 460.538 580.229 445.127C522.978 429.661 465.288 421.75 406.241 431.312C377.708 435.933 351.095 445.031 326.277 458.557C296.503 474.786 271.752 496.63 250.849 522.541C223.159 556.863 203.869 595.4 189.108 636.301C149.678 745.545 130.401 858.046 135.575 974.507C137.879 1026.39 145.955 1077.67 160.118 1127.92C172.591 1172.18 189.239 1215.06 217.186 1253.38C241.698 1286.99 271.883 1314.42 309.37 1334.33C358.651 1360.5 411.899 1370.64 467.172 1372.16C524.081 1373.73 579.756 1365.91 634.626 1353.41C662.698 1347.02 690.281 1338.8 722.511 1330.23C749.971 1320.03 781.74 1308.56 813.214 1296.44C837.031 1287.26 860.922 1278.09 883.981 1267.38C919.644 1250.84 955.115 1233.82 989.772 1215.49C1035.51 1191.31 1080.73 1166.18 1123.08 1136.81C1155.32 1114.44 1184.91 1089.37 1208.47 1058.35C1226.86 1034.13 1239.9 1007.71 1243.48 977.464C1248.15 938.099 1236.06 902.289 1215.06 868.688L1215.07 868.69Z" fill="#7EE000"/>
</g>
</g>
</g>
</svg>
