<svg width="51" height="50" viewBox="0 0 51 50" fill="none" xmlns="http://www.w3.org/2000/svg">
<g style="mix-blend-mode:multiply">
<path d="M33.989 20.6721C33.0414 21.327 32.2575 22.1556 31.5878 23.0883C30.6203 24.4378 29.6528 25.7972 28.735 27.1864C27.4897 29.0717 26.3784 31.0413 25.4754 33.1151C24.88 34.4746 24.3789 35.8687 24.0862 37.3273C23.7935 38.7909 23.6992 40.2595 24.0713 41.728C24.25 42.4375 24.5427 43.0924 24.9495 43.6977C25.4357 44.422 26.0608 45.0074 26.7852 45.4937C27.7477 46.1337 28.7995 46.5603 29.9108 46.8679C32.8727 47.6866 35.8743 47.9942 38.9355 47.6766C40.2999 47.5377 41.6344 47.25 42.9343 46.8134C44.0754 46.4264 45.1719 45.9402 46.1294 45.1761C46.9679 44.5064 47.6277 43.7026 48.0792 42.7252C48.6696 41.4452 48.8333 40.0858 48.7589 38.6917C48.6845 37.2579 48.367 35.8687 47.9304 34.5043C47.7071 33.8097 47.4342 33.1251 47.1415 32.3313C46.819 31.6565 46.4519 30.8726 46.0699 30.1036C45.7821 29.5182 45.4894 28.9327 45.1619 28.3672C44.6559 27.494 44.135 26.6307 43.5842 25.7873C42.8549 24.6759 42.1008 23.5745 41.2425 22.5574C40.5876 21.7835 39.8682 21.079 39.0049 20.5332C38.3302 20.1065 37.6058 19.8238 36.8021 19.7791C35.7553 19.7245 34.8325 20.0867 33.989 20.6672V20.6721Z" fill="#F9E229"/>
</g>
<g style="mix-blend-mode:multiply">
<path d="M32.4164 30.5948C31.4985 29.9201 30.4616 29.4487 29.3701 29.1114C27.7825 28.6202 26.1899 28.1389 24.5874 27.7023C22.4044 27.1169 20.1916 26.6753 17.9392 26.4521C16.4607 26.3082 14.9822 26.2487 13.5038 26.4074C12.0203 26.5662 10.6014 26.9036 9.32633 27.6626C8.70617 28.0298 8.18027 28.4862 7.73375 29.027C7.20289 29.6769 6.84071 30.4162 6.60753 31.215C6.29992 32.2717 6.23047 33.3533 6.29 34.4497C6.4438 37.3769 7.0987 40.195 8.36384 42.884C8.92447 44.0797 9.61905 45.2158 10.4377 46.2676C11.162 47.1954 11.9707 48.0487 12.9928 48.6987C13.8908 49.2643 14.8632 49.6364 15.9299 49.7654C17.3339 49.934 18.6685 49.686 19.9684 49.2196C21.3079 48.7384 22.5235 48.0487 23.6745 47.2599C24.2649 46.8531 24.8255 46.4115 25.4903 45.9154C26.0262 45.4242 26.6563 44.8685 27.2665 44.298C27.7279 43.8663 28.1943 43.4347 28.6259 42.9733C29.2907 42.2589 29.9506 41.5395 30.5757 40.7953C31.3993 39.8129 32.208 38.8108 32.9026 37.7341C33.4334 36.9155 33.875 36.0572 34.1181 35.1146C34.3066 34.3803 34.3513 33.641 34.1379 32.8969C33.8601 31.9294 33.23 31.2001 32.4114 30.5998L32.4164 30.5948Z" fill="#31A1FF"/>
</g>
<g style="mix-blend-mode:multiply">
<path d="M23.5008 32.5544C23.8481 31.5225 23.9722 30.4508 23.9474 29.3593C23.9126 27.7767 23.8729 26.189 23.7787 24.6064C23.6497 22.4532 23.3718 20.3148 22.8707 18.2063C22.5433 16.8221 22.1315 15.4627 21.5213 14.1677C20.9061 12.8679 20.1371 11.6772 19.0158 10.7345C18.475 10.2781 17.8747 9.93077 17.2198 9.6827C16.4359 9.38502 15.6222 9.27091 14.7887 9.29076C13.6873 9.31557 12.6405 9.56363 11.6234 9.93573C8.89964 10.923 6.43386 12.3321 4.27569 14.2521C3.31815 15.1104 2.45984 16.063 1.7206 17.1148C1.07067 18.0376 0.510039 19.0199 0.222282 20.1412C-0.0307458 21.1235 -0.0803591 22.1108 0.137939 23.118C0.420735 24.4377 1.07563 25.5838 1.92402 26.6306C2.80217 27.7072 3.83909 28.6151 4.95043 29.4338C5.52098 29.8505 6.11634 30.2325 6.79604 30.6939C7.43109 31.0412 8.15545 31.448 8.88972 31.84C9.44539 32.1377 10.0011 32.4354 10.5766 32.6933C11.4647 33.0952 12.3527 33.4822 13.2557 33.8344C14.4464 34.3008 15.652 34.7424 16.8874 35.0649C17.83 35.308 18.7826 35.4618 19.755 35.4121C20.5141 35.3725 21.2285 35.1988 21.8636 34.792C22.6921 34.2611 23.1883 33.4772 23.5008 32.5594V32.5544Z" fill="#00B5C8"/>
</g>
<g style="mix-blend-mode:multiply">
<path d="M18.4949 24.7553C19.5814 24.7752 20.6381 24.5767 21.6651 24.2393C23.1585 23.7531 24.6469 23.257 26.1155 22.7113C28.1149 21.972 30.0547 21.1038 31.9004 20.0371C33.1109 19.3425 34.2719 18.5735 35.3088 17.6408C36.3507 16.708 37.2388 15.6662 37.7795 14.3713C38.0425 13.7461 38.1814 13.1012 38.2112 12.4363C38.2459 11.6376 38.0971 10.8636 37.8192 10.1144C37.4471 9.12218 36.8815 8.24402 36.2118 7.42044C34.4207 5.22753 32.3072 3.3968 29.8067 1.99275C28.6904 1.36762 27.5195 0.866527 26.2891 0.499389C25.2075 0.176903 24.1012 -0.0463568 22.9501 0.00821778C21.938 0.0578311 20.9854 0.305897 20.1023 0.787146C18.9364 1.42716 18.0583 2.34996 17.3339 3.42657C16.5897 4.53295 16.0539 5.73855 15.6272 6.98384C15.4089 7.62386 15.2353 8.27379 15.012 9.02295C14.883 9.69769 14.7242 10.4766 14.5804 11.2555C14.4762 11.8459 14.367 12.4363 14.3025 13.0317C14.2033 13.9495 14.114 14.8724 14.0644 15.7952C13.9999 17.0156 13.9552 18.2312 14.0396 19.4517C14.1041 20.3794 14.2579 21.2874 14.6101 22.1556C14.888 22.8303 15.275 23.4306 15.8654 23.892C16.6294 24.4924 17.5324 24.7156 18.4949 24.7355V24.7553Z" fill="#42BD5C"/>
</g>
<g style="mix-blend-mode:multiply">
<path d="M24.5625 17.8044C24.885 18.7967 25.406 19.6997 26.0509 20.5381C26.9837 21.7537 27.9214 22.9642 28.8987 24.1401C30.2284 25.7426 31.6622 27.2558 33.2548 28.6251C34.2967 29.5231 35.3882 30.3566 36.5987 31.0264C37.8143 31.7011 39.0794 32.2072 40.4735 32.3262C41.1483 32.3808 41.8032 32.3262 42.4432 32.1576C43.2122 31.9591 43.8968 31.6019 44.522 31.1306C45.3455 30.5054 46.0004 29.7414 46.571 28.893C48.0842 26.6306 49.1608 24.1847 49.7016 21.5056C49.9447 20.3149 50.0489 19.0993 50.0142 17.8789C49.9794 16.8023 49.8455 15.7306 49.4287 14.7036C49.0616 13.8006 48.5307 13.0068 47.7915 12.342C46.8191 11.4688 45.668 10.938 44.4178 10.5907C43.1328 10.2335 41.823 10.0945 40.5033 10.0697C39.8286 10.0548 39.1538 10.0846 38.3749 10.0995C37.6952 10.1739 36.9063 10.2583 36.1224 10.3525C35.5271 10.4269 34.9367 10.5014 34.3512 10.6105C33.4483 10.7842 32.5453 10.9727 31.6523 11.191C30.4765 11.4837 29.3056 11.7963 28.1794 12.2229C27.321 12.5504 26.5074 12.9523 25.793 13.5228C25.2373 13.9693 24.7908 14.4952 24.5377 15.165C24.2103 16.0332 24.2798 16.9164 24.5675 17.7995L24.5625 17.8044Z" fill="#7EE000"/>
</g>
</svg>
